<?xml version="1.0" encoding="UTF-8"?>
<!-- ============================================================================
  QDEE — logo koncept A "Quantum Hex" (RECOMMENDED)
  Derivacja grejem-os-logo.svg:
    - zachowany heksagonalny "deck" (brand GREJEM)
    - centralny cyan LED → prostokątny "ekran" z 3 liniami skanowania
    - magenta (#FF2EC4) jako akcent dominujący (zgodnie z apps.js:112)
  ============================================================================ -->
<svg xmlns="http://www.w3.org/2000/svg" viewBox="0 0 256 256" width="256" height="256">
  <defs>
    <linearGradient id="bg" x1="0%" y1="0%" x2="100%" y2="100%">
      <stop offset="0%" stop-color="#0E0E14"/>
      <stop offset="100%" stop-color="#1A1A2A"/>
    </linearGradient>
    <linearGradient id="hexStroke" x1="0%" y1="0%" x2="100%" y2="100%">
      <stop offset="0%" stop-color="#2DD4FF"/>
      <stop offset="50%" stop-color="#9B5CFF"/>
      <stop offset="100%" stop-color="#FF2EC4"/>
    </linearGradient>
    <linearGradient id="screenGrad" x1="0%" y1="0%" x2="100%" y2="100%">
      <stop offset="0%" stop-color="#9B5CFF"/>
      <stop offset="100%" stop-color="#FF2EC4"/>
    </linearGradient>
    <filter id="glow" x="-50%" y="-50%" width="200%" height="200%">
      <feGaussianBlur stdDeviation="4" result="blur"/>
      <feMerge>
        <feMergeNode in="blur"/>
        <feMergeNode in="SourceGraphic"/>
      </feMerge>
    </filter>
    <linearGradient id="gloss" x1="0%" y1="0%" x2="0%" y2="100%">
      <stop offset="0%" stop-color="#FFFFFF" stop-opacity="0.15"/>
      <stop offset="50%" stop-color="#FFFFFF" stop-opacity="0"/>
    </linearGradient>
  </defs>

  <rect width="256" height="256" rx="56" ry="56" fill="url(#bg)"/>
  <rect width="256" height="128" rx="56" ry="56" fill="url(#gloss)"/>

  <polygon points="128,36 204,80 204,176 128,220 52,176 52,80"
           fill="none" stroke="url(#hexStroke)" stroke-width="3"
           opacity="0.4" filter="url(#glow)"/>
  <polygon points="128,52 188,87 188,169 128,204 68,169 68,87"
           fill="none" stroke="url(#hexStroke)" stroke-width="6"
           stroke-linejoin="round"/>

  <rect x="92" y="100" width="72" height="56" rx="4" ry="4"
        fill="none" stroke="url(#screenGrad)" stroke-width="3"
        filter="url(#glow)"/>
  <line x1="100" y1="114" x2="156" y2="114" stroke="#FF2EC4" stroke-width="2" opacity="0.9"/>
  <line x1="100" y1="128" x2="148" y2="128" stroke="#FF2EC4" stroke-width="2" opacity="0.6"/>
  <line x1="100" y1="142" x2="152" y2="142" stroke="#FF2EC4" stroke-width="2" opacity="0.4"/>

  <g opacity="0.85">
    <rect x="40" y="120" width="14" height="6" rx="2" fill="#2DD4FF"/>
    <rect x="40" y="130" width="14" height="6" rx="2" fill="#2DD4FF" opacity="0.6"/>
    <rect x="202" y="120" width="14" height="6" rx="2" fill="#FF2EC4"/>
    <rect x="202" y="130" width="14" height="6" rx="2" fill="#FF2EC4" opacity="0.6"/>
  </g>

  <g fill="#9B5CFF" opacity="0.85">
    <circle cx="100" cy="220" r="4"/>
    <circle cx="118" cy="220" r="4"/>
    <circle cx="138" cy="220" r="4"/>
    <circle cx="156" cy="220" r="4"/>
  </g>
</svg>
